<?xml version="1.0" encoding="UTF-8"?>
<!-- Generator: Adobe Illustrator 25.2.3, SVG Export Plug-In . SVG Version: 6.00 Build 0)  -->
<svg xmlns="http://www.w3.org/2000/svg" xmlns:xlink="http://www.w3.org/1999/xlink" version="1.1" id="Layer_1" x="0px" y="0px" viewBox="0 0 409.5 175" style="enable-background:new 0 0 409.5 175;" xml:space="preserve">
<style type="text/css">
	.st0{fill:#FFFFFF;}
</style>
<g>
	<path class="st0" d="M20.8,173.9c1.3-2.5,2.8-4.9,4.4-7.3c0.3-0.5,0.4-0.9,0.3-1.4c-0.2-0.9-0.5-1.8-0.9-2.7   c-0.2-0.5-0.2-0.9,0.1-1.4c1.2-2,2.3-4,3.4-6.1c0.4-0.7,0.6-1.4,0.2-2.2c-0.4-0.9-0.8-1.8-1-2.8c-0.1-0.5-0.4-0.7-0.9-0.6   c-1.1,0.2-2.1,0.3-3.2,0.3c-0.3,0-0.6,0.2-0.7,0.5c-0.9,2.3-2.4,4.1-3.9,6c-1.5,1.9-3,3.7-4.5,5.5c-0.2,0.3-0.5,0.8-0.9,0.6   c-0.5-0.2-0.3-0.8-0.2-1.2c0.3-1.7,1.2-3.2,2.1-4.6c1.1-1.8,2.3-3.5,3.6-5.1c0.6-0.7,0.1-1.1-0.3-1.5c-0.5-0.5-0.7,0-1,0.3   c-0.3,0.4-0.7,0.7-1.2,0.6c0-0.3,0.2-0.5,0.4-0.7c0.2-0.2,0.5-0.4,0.4-0.7c-0.2-0.3-0.6-0.1-0.9-0.1c-0.8,0.1-1.6,0.2-2.4,0.3   c-0.5,0.1-0.9,0-1.3-0.3c-0.7-0.5-1.4-1-2.1-1.5c-0.5-0.3-0.9-0.4-1.5-0.3c-1.2,0.2-2.4,0.4-3.6,0.6c-0.3,0-0.7,0.2-0.7-0.2   c-0.1-0.4,0.3-0.4,0.6-0.5c1.2-0.4,2.5-0.6,3.8-0.7c0.7,0,1.3,0.1,1.9,0.6c1.4,1.1,2.8,1.4,4.6,1.1c1.3-0.3,2.7-0.2,3.6,1   c0.4,0.5,0.8,0.5,1.2-0.1c0.4-0.5,0.8-1.1,1.4-1.4c0.7-0.4,1.5-0.5,2.2-0.7c2.1-0.8,4.3-1.3,6.5-1.7c0.1,0,0.3,0,0.4-0.1   c0.3-0.1,0.7,0,0.7-0.4c0-0.3-0.4-0.3-0.6-0.5c-0.9-1-2.1-0.8-3.2-0.6c-0.4,0.1-0.7,0.2-1.1,0.2c-0.1,0-0.3,0-0.3-0.2   c0-0.2,0.1-0.2,0.3-0.3c0.7-0.2,1.3-0.5,2-0.6c0.7-0.1,1.4,0,2,0.4c0.9,0.6,1.8,0.8,2.9,0.6c0.7-0.1,1.4,0.1,2.1,0.2   c1.5,0.1,3.1,0.1,4.4-0.9c1.1-0.8,2.1-1.8,3.1-2.7c0.3-0.3,0.3-0.6,0-0.9c-0.8-0.8-1.5-1.5-2.3-2.2c-0.2-0.2-0.4-0.2-0.7-0.2   c-1.3,0.2-2.6,0.3-3.9,0.5c-0.6,0.1-1,0-1.5-0.5c-0.9-0.8-1.8-1.6-2.8-2.3c-0.4-0.2-0.7-0.3-1.1-0.2c-1.3,0.2-2.7,0.4-4,0.5   c-0.3,0-0.7,0.1-0.8-0.2c-0.1-0.5,0.4-0.4,0.7-0.5c1.3-0.4,2.7-0.7,4.1-0.6c0.7,0,1.3,0.2,1.9,0.6c0.1,0.1,0.3,0.2,0.4,0.3   c1.2,0.9,2.4,1.7,4.1,1.4c1-0.2,2.1,0,3.1,0.1c0.4,0,0.7,0.2,0.9,0.4c0.7,0.7,1.5,1.2,2.2,2c0.6,0.8,0.8,0.8,1.5,0.1   c0.9-0.9,1.8-1.7,2.6-2.6c1.5-1.7,3.5-2.2,5.6-2.6c2-0.4,4.1-0.6,6.2-0.6c0.6,0,1.3,0.3,1.9,0c-25.9-12-40.4-31.9-42.7-60.5   c-0.5-18.5,5-35,17.4-48.9c27.5-30.6,72.5-29,98.2-3.7c17.6,17.3,24.4,38.6,19.6,62.8c-4.8,24.2-19.6,40.8-42.2,50.5   c0.1,0.3,0.4,0.3,0.6,0.3c2.2,0.1,4.3,0.6,6.3,1.1c2.2,0.6,4.4,1.3,6.1,3.1c0.9,0.9,1.9,1.8,2.6,2.9c0.1,0.2,0.4,0.4,0.6,0.4   c0.5,0.2,1,0.4,1.4,0.5c1.7,0.5,3.4,1,4.4,2.8c0.6,1.2,2,1.2,3,1.6c0.9,0.3,1.9,0.5,2.7,1c0.2,0.1,0.5,0.1,0.4,0.4   c-0.1,0.3-0.3,0.1-0.5,0c-1.3-0.4-2.7-0.7-4-1.2c-0.8-0.3-1.5-0.6-2-1.3c-1.1-1.4-2.7-2-4.3-2.6c-0.2-0.1-0.4-0.2-0.5,0   c-0.1,0.2,0.1,0.4,0.2,0.5c1,1.2,2.1,2.3,3.2,3.4c0.4,0.4,0.8,0.6,1.3,0.7c2.8,0.7,5.6,1.6,8.3,2.6c0.5,0.2,0.9,0.2,1.4,0.2   c0.9-0.1,1.7-0.3,2.6-0.4c0.8-0.1,1.4,0,2.2,0.3c2.4,0.9,4.8,2,7.1,2.9c0.8,0.3,1.8,0.2,2.7,0.3c1.3,0.1,2.7-0.1,4,0.3   c0.4,0.1,0.8,0.1,1.2-0.2c0.4-0.2,0.8-0.3,1.2-0.4c0.2,0,0.6-0.2,0.6,0.1c0.1,0.3-0.3,0.4-0.5,0.5c-0.1,0.1-0.3,0.1-0.4,0.1   c-0.2,0.1-0.4,0.1-0.4,0.3c0,0.3,0.2,0.4,0.4,0.5c2,0.9,3.8,2,5.7,3c0.3,0.2,0.6,0.4,0.7,0.9c-1.2-0.3-2.2-0.9-3.3-1.4   c-1.6-0.8-3.2-1.5-4.8-2.4c-1.4-0.7-3-0.5-4.4-0.4c-1.5,0.1-3,0.2-4.3-0.7c-0.1-0.1-0.2-0.1-0.5-0.2c0.3,0.9,0.7,1.5,1.5,1.8   c1.2,0.4,2.4,0.8,3.5,1.2c0.4,0.1,0.7,0.5,1,0.8c1,1.6,2.6,2.5,4.4,2.9c0.7,0.2,1.3,0.4,1.9,0.6c0.2,0.1,0.5,0.1,0.4,0.3   c0,0.3-0.4,0.2-0.6,0.2c-1.3-0.4-2.6-0.6-3.8-1.1c-0.8-0.3-1.6-0.8-2.1-1.5c-0.9-1.2-2.3-1.6-3.6-2.2c-0.4-0.2-0.7-0.3-1.1-0.4   c-1.3-0.3-2.1-1.3-2.7-2.4c-0.3-0.6-0.8-1-1.5-1.4c-0.9-0.5-2-0.7-2.9-1.3c-0.6-0.4-1.2,0-1.8,0.2c-0.4,0.1-0.3,0.5,0.1,0.6   c1.3,0.3,2.3,1.1,3.6,1.5c0.8,0.3,1.1,1.2,1.5,1.8c1.2,2,2.3,4,3.4,6c0.9,1.6,1.6,3.2,2.1,4.9c0.2,0.7,0.3,1.4,0.2,2.1   c0,0.3,0,0.6-0.3,0.7c-0.3,0.1-0.5-0.2-0.6-0.4c-1-1.6-2.1-3.1-3.1-4.7c-1.4-2.2-2.9-4.4-3.7-6.8c-0.5-1.4-1.3-1.8-2.7-2.1   c-3.2-0.7-6.4-1.5-9.7-2.2c-1.7-0.4-3.4-0.7-5.2-1c-0.5-0.1-0.8-0.3-1-0.7c-1.6-2.4-3.2-4.8-4.8-7.2c-0.5-0.7-1-1.4-1.5-2.1   c-0.2-0.4-0.5-0.4-0.9-0.2c-0.1,0-0.1,0.1-0.2,0.1c-2.1,0.8-3.2,2.3-3.1,4.7c0,1.1-0.4,2.3-0.7,3.4c-0.3,1.2,0.7,2.9,1.9,3   c1.9,0.1,3.3,1.2,4.8,2.1c0.8,0.5,1.7,1,2.6,1.1c1.9,0.2,3.3,1.4,4.8,2.4c0.5,0.3,0.9,0.6,1.3,1.1c-0.6,0.1-0.8-0.2-1.2-0.4   c-0.9-0.5-1.8-1.1-2.6-1.7c-0.9-0.7-1.9-0.7-2.9-0.9c-0.8-0.2-1.5-0.4-2.2-0.9c-0.9-0.5-1.7-1.1-2.5-1.7c-0.6-0.4-1.3-0.3-2-0.3   c-0.5,0-0.4,0.5-0.2,0.7c0.8,1.2,1.2,2.5,1.5,3.8c0.1,0.4,0.4,0.6,0.6,0.7c0.8,0.5,1.5,1,2.3,1.3c1.3,0.6,2,1.5,2.4,2.9   c0.3,1.1,1,1.9,2.1,2.4c1.1,0.5,2,1.1,3,1.7c0.2,0.1,0.4,0.2,0.3,0.4c-0.1,0.2-0.4,0.2-0.5,0.1c-1.5-0.8-3.1-1.3-4.4-2.5   c-0.5-0.4-0.8-1-1-1.6c-0.5-1-1.1-1.9-2.2-2.5c-1-0.5-1.8-1.2-2.7-1.9c-0.4-0.3-0.5-0.8-0.6-1.2c-0.1-0.3-0.1-0.7-0.6-1.1   c-0.1,0.9-0.3,1.7,0.2,2.5c0.7,1.1,1.4,2.3,2,3.4c0.2,0.3,0.3,0.6,0.4,1c-0.4,0-0.6-0.3-0.8-0.5c-0.5-0.7-0.9-1.4-1.4-2   c-1.1-1.5-1.4-3.2-1.1-5c0.1-0.6,0-1.1-0.3-1.7c-0.6-1.1-1.1-2.3-1.7-3.5c-0.3-0.7,0-1.4,0.1-2.2c0-0.2,0.2-0.4,0-0.6   c-0.2-0.2-0.4,0.1-0.6,0.2c-0.9,0.5-1.4,1.2-1.3,2.3c0.1,0.7-0.1,1.5-0.1,2.2c0,0.1,0,0.3-0.2,0.3c-0.2,0-0.2-0.2-0.3-0.3   c-0.5-1.4,0-4.4,1.2-5.3c1.4-1.1,2.2-2.3,2.4-4.1c0.1-0.8,0.7-1.4,1.4-1.8c0.4-0.3,0.9-0.5,1.4-0.7c0.7-0.3,0.8-0.5,0.3-1.2   c-0.7-0.9-1.7-1.1-2.7-1.3c-1.6-0.3-3.2-0.6-4.7-1c-0.8-0.2-1.5-0.2-2.2,0.4c-0.5,0.4-1.1,0.8-1.7,1.1c-0.9,0.5-1.3,1.2-1.4,2.3   c-0.2,1.9-0.2,3.8-0.4,5.7c0,0.5-0.2,0.8-0.6,1c-1.3,0.9-2.5,1.8-3.8,2.8c-0.5,0.3-0.6,0.8-0.6,1.3c0.3,2.2,0,4.4,0,6.6   c0,0.2,0,0.5-0.2,0.6c-0.4,0-0.3-0.3-0.3-0.6c-0.5-2.6-0.3-5.2-0.3-7.8c0-0.9,0.7-1.5,1.2-2.2c0.9-1,1.8-1.9,2.8-2.8   c0.4-0.4,0.7-0.8,0.8-1.4c0.2-1.6,0.4-3.1,0.6-4.7c0.2-1,0.8-1.7,1.6-2.3c0.2-0.2,0.5-0.3,0.4-0.6c-0.1-0.3-0.4-0.3-0.6-0.4   c-1.2-0.3-2.4-0.5-3.7-0.8c-0.4-0.1-0.7-0.1-1.1,0.1c-3,0.8-6,1.5-9,1.9c-2.2,0.3-4.3,0.6-6.5,0.7c-2.8,0.1-5.6,0.1-8.4-0.1   c-3.6-0.3-7.1-0.8-10.6-1.7c-1.2-0.3-2.4-0.6-3.5-0.9c-0.8-0.2-1.6,0.1-2.4,0.2c-0.6,0-1.3,0.1-1.9,0.2c-0.5,0.1-0.7,0.4-0.3,0.8   c1.8,1.8,3.5,3.6,5.3,5.3c1,0.9,2.3,1.2,3.6,1.8c0.4,0.2,0.8,0.2,1.1,0.5c0.9,0.8,1.9,1.1,3.1,1.2c1.3,0,2.3,0.9,3.3,1.5   c1.5,0.9,3,1.6,4.8,1.9c0.9,0.1,1.7,0.8,2.4,1.3c0.8,0.6,1.7,1.1,2.6,1.9c-0.6,0-1-0.3-1.3-0.5c-1.1-0.7-2.1-1.5-3.2-2.1   c-0.6-0.3-1.4-0.5-2.1-0.5c-0.9-0.1-1.6-0.4-2.3-0.8c-0.9-0.6-1.7-1.1-2.6-1.7c-0.6-0.4-1.2-0.4-1.9-0.5c-0.4-0.1-0.5,0.2-0.4,0.5   c0.1,0.2,0.2,0.4,0.4,0.6c1.4,1.5,2.6,3.1,3.8,4.7c0.2,0.3,0.8,0.6,0.4,1c-0.3,0.3-0.6-0.3-0.8-0.6c-1.7-1.9-3.4-3.7-4.9-5.6   c-1-1.2-2.2-1.7-3.5-2.2c-0.7-0.3-1.4-0.4-2-0.6c-0.6-0.2-1.1-0.5-1.5-1c-0.2-0.3-0.5-0.6-0.8-0.9c-0.1-0.1-0.2-0.3-0.4-0.2   c-0.3,0.1-0.1,0.3-0.1,0.5c0.1,1.3,1.2,2.1,2.1,2.8c1.4,1.1,2.3,2.3,2.6,4c0.1,0.7,0.6,1.2,1.1,1.7c1,0.9,2,1.8,3,2.6   c0.1,0.1,0.4,0.3,0.2,0.5c-0.2,0.2-0.4,0-0.5-0.1c-1.3-0.9-2.5-1.9-3.6-3c-0.6-0.6-0.8-1.4-1.1-2.2c-0.3-0.9-0.7-1.6-1.4-2.2   c-0.8-0.7-1.6-1.5-2.4-2.3c-0.6-0.6-0.7-1.4-0.8-2.2c-0.1-1-0.4-1.8-1-2.4c-0.4-0.5-0.9-0.9-1.3-1.5c-1.2-1.5-2.8-1.4-4.3-1.2   c-2.3,0.3-4.7,0.3-7,0.6c-0.5,0.1-0.9,0.2-1.2,0.5c-0.6,0.6-1.2,1.1-1.7,1.7c-0.5,0.7-0.8,1.4-0.3,2.3c0.5,1,1,1.8,2.3,1.6   c0.5-0.1,1.1,0.1,1.6,0.5c1.1,0.7,2.2,1.3,3.3,2c1.1,0.7,2.3,0.6,3.5,1.1c1.6,0.7,2.9,1.8,4.3,2.9c-0.8,0.1-1.3-0.6-1.9-0.9   c-0.6-0.3-1.1-0.8-1.7-1.1c-0.7-0.4-1.4-0.8-2.2-0.8c-1.6,0.1-2.7-1-4-1.7c-0.9-0.5-1.7-1.4-3-1.2c-0.2,0-0.5-0.1-0.7,0.2   c-0.1,0.2,0.1,0.4,0.2,0.6c0.7,0.9,1,2,1.3,3.1c0.2,0.7,0.5,1.2,1.2,1.6c1,0.6,2,1.2,3.1,1.8c0.4,0.2,0.6,0.5,0.7,1   c0.3,0.8,0.6,1.6,1,2.4c0.5,0.9,1.6,1.1,2.4,1.7c0.8,0.5,1.6,0.8,2.3,1.4c0.1,0.1,0.4,0.2,0.3,0.4c-0.1,0.2-0.3,0.1-0.5,0   c-1.2-0.6-2.5-1.2-3.7-1.8c-1.3-0.6-1.7-1.9-2.3-3c-0.3-0.6-0.8-1.1-1.4-1.5c-1-0.7-2-1.4-3.1-2.1c-0.3-0.2-0.5-0.5-0.6-0.9   c-0.1-0.4-0.2-0.8-0.7-1.1c-0.2,0.8-0.3,1.5,0.1,2.2c0.8,1.3,1.5,2.6,2.3,4c0.1,0.2,0.3,0.4,0.1,0.6c-0.3,0.2-0.4-0.1-0.5-0.3   c-1.1-1.4-2.1-2.8-2.7-4.4c-0.3-0.8-0.2-1.7,0-2.6c0.1-0.7,0-1.3-0.3-1.9c-0.5-1-0.9-2-1.4-3c-0.4-1-0.7-1-1.4-0.2   c-1.7,2-3.5,4.1-5.2,6.2c-0.4,0.5-0.9,0.7-1.5,0.7c-0.8,0-0.9,0.3-0.5,0.9c0.7,1.2,1.3,2.4,2,3.5c0.2,0.3,0.2,0.5,0.1,0.8   c-0.1,0.3-0.2,0.6-0.2,0.9c-0.2,1.5-0.2,2.8,0.8,4.1c0.6,0.8,1,1.7,1.5,2.5c0.1,0.2,0.2,0.4,0,0.6c-0.2,0.1-0.4-0.1-0.5-0.2   c-1-1.5-2.1-2.8-2.7-4.5c-0.1-0.4,0-0.8,0-1.3c0.3-2-0.5-3.6-1.4-5.3c-1-2-1-2-3.2-1.8c-2.1,0.2-4.2,0.5-6.2,0.7   c-0.5,0.1-0.9,0.1-0.4,0.8c0.9,1.2,1.3,2.5,0.5,4c-0.6,1.2-1.2,2.3-1.8,3.5c-0.7,1.3-1.1,2.7-0.8,4.2c0.2,0.9,0.2,1.7,0.2,2.6   c0,0.4-0.1,0.8-0.3,1.1c-1.7,2.8-3.3,5.7-5.4,8.4C21.2,173.9,21,173.9,20.8,173.9z M107.7,129c0,0,0.1,0.1,0.1,0.1   c0.2-0.1,0.5-0.1,0.7-0.2c0.6-0.2,1.3-0.5,1.9-0.7c5.8-2.5,11.3-5.6,16.2-9.7c4.9-4,9.2-8.7,12.7-14c3.6-5.4,6.3-11.2,8.1-17.4   c1.4-4.7,2.2-9.5,2.4-14.4c0.4-8.3-0.7-16.3-3.5-24.1c-1.7-4.8-3.9-9.3-6.7-13.5c-2.6-4-5.7-7.7-9.1-11.1c-2.9-2.8-6.1-5.3-9.5-7.6   c-4.2-2.7-8.6-4.9-13.3-6.6c-2.6-0.9-5.2-1.6-7.9-2.2c-4-0.9-8-1.3-12.1-1.4C83,6.2,78.2,6.7,73.5,7.7c-3.6,0.7-7.1,1.9-10.5,3.2   c-3.7,1.5-7.2,3.4-10.6,5.6C47,20,42.2,24.3,38,29.3c-4.6,5.5-8.1,11.7-10.6,18.4c-1.5,4-2.5,8.2-3.2,12.5c-0.7,4.7-0.9,9.3-0.6,14   c0.3,4,1,7.9,2,11.8c1,3.5,2.2,7,3.7,10.3c2.3,5,5.3,9.6,8.8,13.8c3.6,4.3,7.6,8,12.1,11.2c4.3,3,8.9,5.5,13.8,7.4   c0.4,0.2,0.7,0.2,1.1-0.1c1.3-0.9,2.7-1.2,4.2-1c2.3,0.2,4.6,0.7,6.7,2c0.6,0.3,1.1,0.4,1.8,0.4c1.5-0.1,2.6-1,3.7-1.7   c0.9-0.6,1.9-1.1,3-0.4c0.2,0.1,0.4,0.2,0.5,0c0.1-0.2,0-0.3-0.1-0.5c-0.5-1.3-0.8-2.5-0.2-3.9c0.2-0.6,0.3-1.2,0.3-1.8   c-0.1-2.7-0.1-5.4-0.4-8.1c-0.3-3-0.1-5.9,0.7-8.8c0.5-1.8,1-3.5,1.5-5.3c1.2-3.9,1.2-7.9,1.2-11.9c0-1.6-0.5-3.2-1.6-4.5   c-2.2-2.7-5.2-4-8.5-4.7c-0.5-0.1-1-0.3-1.1-0.9c-0.1-0.4-0.4-0.7-0.8-0.8c-1.3-0.6-2.7-0.7-4.1-0.7c-0.5,0-1.1,0.2-1.3-0.5   c-0.2-0.6,0.1-1.2,0.5-1.7c0.1-0.1,0.2-0.1,0.3-0.2c0.4-0.3,0.5-0.6,0-0.9c-0.3-0.2-0.5-0.3-0.8-0.4c-0.6-0.1-1.1-0.4-1.5-0.9   c-0.4-0.6-0.9-0.7-1.5-0.6c-1,0.2-1.7,0.7-2.3,1.5c-0.7,1-1.5,1.6-2.7,1.5c-0.3,0-0.5,0-0.7-0.2c-0.2-0.3,0-0.5,0.1-0.7   c0.2-0.3,0.4-0.6,0.6-0.9c1.3-2.4,0.9-3.9-1.5-5.3c-1.1-0.7-2.3-1.1-3.5-1.4c-0.3-0.1-0.6-0.2-0.7-0.5c-0.1-0.4,0.2-0.6,0.4-0.8   c1-0.9,2.1-1.2,3.5-0.8c1.6,0.4,2.8,1.4,4.3,1.9c1.2,0.4,1.9-0.1,1.8-1.3c-0.1-1.4,0.7-2.4,1.9-3c1.1-0.5,2.2-0.4,3.3-0.4   c0.6,0,0.9,0.3,0.9,0.9c0.1,1,0.2,2.1,0.2,3.1c-0.1,1.4,0.4,1.8,1.9,2c1.1,0.2,2.2,0,3.3,0.4c0.6,0.3,1.1,0.6,1.1,1.3   c0.1,0.7-0.1,1.3-0.7,1.8c-1,0.7-2,0.7-3.1-0.3c-0.7-0.7-1.5-1.3-2.3-1.9c-0.8-0.6-1.8-0.5-2.4,0.1c-0.3,0.3-0.4,0.5,0,0.8   c1.8,1.5,3.6,3,6.1,3.2c0.7,0.1,1,0.4,1.1,1.1c0,0.5,0,1,0,1.5c0,0.2,0,0.5,0.3,0.6c0.2,0.1,0.3-0.1,0.5-0.3   c0.9-0.9,1.8-1.7,2.7-2.6c0.8-0.8,1.7-1.6,1.8-2.9c0.1-1-0.5-1.7-1-2.4c-0.4-0.5-0.2-1.1,0.4-1.5c0.4-0.2,0.9-0.3,1.4-0.3   c0.7,0,1.4,0,2-0.2c0.8-0.2,0.7-0.8,0.5-1.5c-0.2-0.6-0.5-0.8-1.1-0.6c-0.5,0.2-1,0.3-1.6,0.4c-2.8,0.8-5.7,1.3-8.6,1.2   c-0.8,0-1-0.5-0.6-1.2c0.4-0.8,1.1-1.3,1.8-1.7c0.9-0.6,2-1,2.8-1.7c0.2-0.2,0.5-0.3,0.4-0.6c-0.1-0.3-0.4-0.3-0.6-0.4   c-0.9-0.1-1.8-0.2-2.6-0.4c-1.5-0.4-2.4-1-2.5-2.3c-0.1-0.7,0.1-1.1,0.9-1.1c0.7,0,1.4-0.2,2-0.6c0.9-0.6,1.8-0.5,2.7,0.1   c0.2,0.1,0.3,0.2,0.5,0.3c3.2,1.2,5.3,3.4,6.1,6.7c0.1,0.3,0.2,0.6,0.6,0.8c1.2,0.4,1.3,0.6,1.3,1.8c0,0.5-0.1,1,0.2,1.5   c0.3,0.7,0.8,0.9,1.5,0.8c0.7-0.1,1.3-0.3,1.4-1.3c0.1-1.5-0.4-2.8-1.2-4c-0.6-0.9-1-1.9-0.9-3c0-0.6-0.2-1.1-0.7-1.5   c-0.6-0.4-1-1-1.4-1.6c-0.7-0.9-1.1-2.1-2.3-2.5c-0.7-0.2-1.3-0.5-2-0.8c-1.1-0.4-2.2-0.9-2.8-2c-0.5-0.9-0.2-1.5,0.8-1.6   c1.7-0.1,3.3,0.2,4.7,1c0.7,0.4,1.5,0.7,2.2,1c0.2,0.1,0.4,0.2,0.5-0.1c0.1-0.2-0.1-0.3-0.2-0.4c-0.4-0.4-0.7-0.8-0.9-1.3   c-0.1-0.4-0.4-0.6-0.8-0.7c-1.8-0.5-3.6-0.8-5.5-0.9c-1.6-0.1-3.1-0.4-4.5-1.1c-1.6-0.8-1.7-1.9-0.3-3.1c0.9-0.7,2-0.8,3.1-0.9   c3-0.4,5.6,0.2,7.5,2.8c0.2,0.3,0.3,0.7,0.7,0.6c0.4-0.1,0.6-0.5,0.8-0.9c0.1-0.3,0.1-0.7,0.2-1c0-0.7,0-1.4-0.1-2   c-0.1-0.6,0.1-1.1,0.9-1.1c1.4-0.1,2.6-0.7,3.7-1.5c1.1-0.8,2.2-1.4,3.6-1.4c0.8,0,0.9,0.2,0.6,0.8c-0.6,1.5-1.5,2.8-2.7,3.9   c-1.3,1.3-2.7,2.4-3.6,3.9c-0.2,0.3-0.5,0.6-0.2,1c0.4,0.4,0.7,0.4,1.2,0.1c0.6-0.4,1.3-0.7,1.9-1.1c1.9-1.1,3.9-1.8,6.2-1.2   c0.7,0.2,0.8,0.4,0.4,1c-1.4,2-3,3.7-5.1,5.1c-0.8,0.6-1.8,1-2.2,2c-0.1,0.3-0.5,0.6-0.1,0.9c0.3,0.2,0.6,0,0.8-0.1   c1-0.6,2.1-0.9,3.2-0.8c0.8,0.1,1,0.4,0.6,1.1c-0.3,0.6-0.8,1.1-0.9,1.8c0,0.3,0,0.5,0.2,0.7c0.3,0.2,0.5,0,0.7-0.1   c0.5-0.3,1-0.7,1.4-1.1c1.7-1.5,3.8-1.6,5.9-1.4c0.6,0,0.7,0.4,0.4,0.8c-0.4,0.5-0.9,1-1.5,1.3c-1.3,0.7-2.7,1-4.1,1.4   c-1.3,0.4-2.7,0.8-3.6,2c-0.4,0.5-0.8,1-0.5,1.6c0.3,0.6,0.9,0.9,1.5,0.9c1.1,0,2.2,0,3.2,0c0.3,0,0.6-0.1,0.9,0.2   c0.2,0.4-0.1,0.6-0.3,0.9c-0.7,0.9-1.5,1.5-2.7,1.6c-0.6,0.1-1.3,0.1-1.2,1c0,0.8,0.3,1.4,0.9,1.9c0.6,0.4,1.3,0.7,1.9,0.8   c1.7,0.4,3.2,1.1,3.7,3c0.1,0.3,0.3,0.7,0.7,0.7c0.4,0,0.6-0.3,0.8-0.6c0.4-0.7,0.6-1.7,1.2-2.1c1.4-1.2,0.7-2.3,0.2-3.4   c0-0.1-0.1-0.1-0.1-0.2c-0.7-1.6-1.3-3.2-1.4-5c-0.2-2.3,0.8-3.9,2.8-4.8c0.8-0.4,1.7-0.6,2.6-0.7c0.3-0.1,0.7-0.3,1,0   c0.3,0.3-0.1,0.6-0.2,0.9c-0.1,0.3-0.3,0.6-0.4,0.8c-0.8,1.5-2,2.7-2.9,4.2c-0.3,0.6-0.2,0.9,0.4,1c0.3,0.1,0.6,0,0.8,0   c1.3-0.3,2.3-1,3.6-1.3c1.4-0.4,2.8-0.5,4.2,0c1.1,0.4,1.2,1,0.4,1.8c-0.3,0.3-0.7,0.6-1,0.9c-0.4,0.3-0.9,0.6-1.3,0.9   c-1.5,1-1.6,1.8-0.3,3c0.6,0.5,0.5,0.8-0.2,1.1c-1.2,0.6-2.4,1-3.6,1.5c-1.4,0.6-2.8,1.1-3.7,2.4c-0.4,0.5-0.8,1.1-0.2,1.8   c0.5,0.7,1.2,0.9,2,0.6c0.4-0.2,0.9-0.4,1.3-0.6c0.8-0.4,1.6-0.8,2.4-1c1-0.3,1.5,0,1.7,1.1c0.2,1-0.5,1.7-1.7,1.8   c-1.2,0-2.3,0-3.5,0c-0.2,0-0.6-0.1-0.7,0.2c-0.1,0.3,0.2,0.5,0.5,0.6c0.3,0.1,0.6,0.2,0.9,0.2c0.7,0,1.4,0,2,0   c0.5,0,0.7,0.2,0.8,0.7c0,0.8,0.2,1.7,0.2,2.5c0,1.8-0.7,2.4-2.5,2.2c-1-0.1-2-0.3-2.9-0.4c-1.6-0.2-2.1,0.4-2,2   c0,0.6,0.2,1.2,0.3,1.8c0,0.2,0,0.4-0.2,0.5c-0.2,0.1-0.4,0-0.6-0.1c-0.4-0.4-0.7-0.9-0.7-1.5c-0.1-0.8-0.1-1.6-0.2-2.5   c0-0.5-0.2-0.9-0.7-0.8c-1.2,0.1-2.3-0.3-3.5-0.1c-0.2,0-0.6,0.2-0.7-0.1c-0.1-0.3,0.3-0.3,0.5-0.4c1.3-0.6,2.7-0.9,3.6-2.1   c0.2-0.3,0.5-0.5,0.4-0.9c-0.2-0.4-0.6-0.3-0.9-0.3c-1.4,0.1-2.6-0.3-3.2-1.5c-0.4-0.8-0.6-1.8-0.6-2.7c0-0.7-0.3-0.9-0.9-0.8   c-0.6,0.1-1.2,0.4-1.6,0.9c-0.1,0.2-0.2,0.4-0.5,0.3C96,73.3,96,73,96,72.8c0-0.6,0.1-1.2,0.3-1.8c0.6-1.5,0.2-2.7-1.2-3.2   c-0.4-0.2-0.9-0.3-1.3-0.4c-0.3-0.1-0.6,0-0.6,0.3c0,1-0.5,2-0.3,3c0.2,1.4,0.9,2.6,1.4,3.8c0.2,0.5,0.4,1.1-0.2,1.5   c-0.7,0.5-1.1,1.3-1.6,1.9c-0.5,0.6-0.3,1.1,0.2,1.5c0.5,0.4,1,0.1,1.4-0.3c0.5-0.5,0.9-1.1,1.3-1.7c0.4-0.5,0.9-0.9,1.4-1.3   c0.2-0.1,0.5-0.2,0.6,0c0.2,0.3-0.1,0.4-0.2,0.5c-2,1.6-3.3,3.8-4.2,6.2c-1.4,3.5-2.2,7.1-2.8,10.8c-0.6,3.5-1,7.1-1.3,10.6   c-0.4,4.7-1.1,9.3-0.8,14c0.1,1.2,0.1,2.4,0.5,3.6c0.3,0.9,0.5,2.1,1.7,2.2c1.1,0.1,2.1,0.4,3,1c0.7,0.4,1.2,0.2,1.5-0.5   c0.6-1,1.5-1.5,2.6-1.7c1.1-0.2,2.3-0.1,3.4-0.1c0.6,0,1.1-0.1,1.7-0.3c0.7-0.3,1.2-0.7,1.8-1.1c0.4-0.3,0.8-0.4,1.2,0   c0.4,0.5,0,0.8-0.4,1c-1,0.6-2.1,1-3.3,1.4c-2.1,0.7-3.6,1.8-4,4.1c-0.2,0.9,0.1,1.2,0.9,1c1.4-0.2,2.5-1,3.5-1.8   c0.5-0.4,1-0.8,1.5-1.2c1.6-1.2,3.7-0.9,5.5-1.7c0.5-0.2,0.7,0.3,0.6,0.7c-0.1,0.7-0.4,1.2-0.7,1.8   C108.7,127.6,108.2,128.3,107.7,129z M90.7,76.3c0-0.1,0-0.4-0.1-0.7c-0.1-0.7-0.5-1.2-1.2-1.4c-0.8-0.2-1.6-0.7-2.3,0.3   c-0.4,0.6-1.1,0.7-1.8,0.7c-1.3,0.1-2.5,0.2-3.8,0.4c-0.3,0-0.7,0.2-0.7,0.6c-0.1,0.5,0.9,1.9,1.3,1.9c1.8,0.2,3,1.3,4,2.5   c0.6,0.7,1.2,1.4,2.1,1.9c0.5,0.3,0.9,0.2,1.1-0.4c0.1-0.5,0.3-0.9,0.4-1.4C90.1,79.2,90.7,77.9,90.7,76.3z"></path>
	<path class="st0" d="M304.5,61.6c0-16.4,0-32.9,0-49.3c0-1.4,0-1.4,1.4-1.4c11.5,0,23.1-0.1,34.6,0c4.8,0,9.5,1.1,14,2.8   c5.3,2,10.1,4.8,14.4,8.5c3.7,3.1,6.9,6.5,9.6,10.5c2,3,3.7,6.1,5.1,9.4c1.9,4.7,3.2,9.6,3.6,14.7c0.4,4.1,0.4,8.2-0.1,12.3   c-0.5,4.9-1.7,9.5-3.6,14c-1.8,4.4-4.2,8.4-7.3,12c-4.9,5.9-11,10.3-18.1,13.4c-4.6,2-9.4,3.2-14.4,3.7c-3.7,0.4-7.4,0.2-11,0.3   c-0.8,0-1-0.3-1-1c0-3.3,0-6.6,0-9.9c0-2.7,0-5.4,0-8.1c0-1.5,0-1.5,1.5-1.5c1.6,0,3.2,0,4.8,0c6.9,0,12.7-2.8,17.7-7.4   c3.3-3.1,5.9-6.7,7.7-10.9c1.4-3.2,2.3-6.6,2.4-10.1c0.1-2.7,0-5.4-0.5-8.1c-1.1-5.8-3.6-10.9-7.8-15.2c-3.3-3.4-7.3-5.7-11.8-7.2   c-2.6-0.8-5.2-1.3-7.9-1.5c-3.6-0.3-7.1-0.1-10.7-0.1c-1.2,0-1.2,0-1.2,1.3c0,20.2,0,40.3,0,60.5c0,6,0,12,0,18   c0,1.2-0.1,1.2-1.3,1.2c-6.3,0-12.6,0-18.9,0c-1.3,0-1.3,0-1.3-1.4C304.5,94.5,304.5,78.1,304.5,61.6z"></path>
	<path class="st0" d="M212.5,10.8c6.5,0,11.9,0,17.3,0c1.4,0,1.4,0.1,1.4,1.5c0,5.4,0,10.9,0,16.3c0,1.3,0,1.3-1.3,1.3   c-9,0-18.1,0-27.1,0c-1.3,0-2.5,0.1-3.7,0.6c-2.6,1-3.8,3-4.2,5.7c-0.4,2.1,0.5,3.6,1.8,5.1c2.2,2.5,4.9,4.4,7.6,6.3   c4.9,3.5,10,6.8,14.7,10.5c4.7,3.7,9.2,7.6,12.5,12.7c2.3,3.6,3.7,7.5,3.5,11.8c-0.1,4.5-0.8,8.9-2.4,13.1   c-2.5,6.6-6.9,11.6-13.5,14.4c-3.7,1.5-7.6,2.3-11.6,2.3c-11.3,0.1-22.6,0-33.8,0c-1.3,0-1.3,0-1.3-1.3c0-6,0-12,0-17.9   c0-1.2,0.1-1.2,1.3-1.2c10.7,0,21.3,0,32,0c4.6,0,7.1-4.2,6.5-8c-0.3-1.6-1.3-2.9-2.4-4c-2-2.1-4.4-3.8-6.8-5.5   c-4.2-3-8.6-5.8-12.8-8.9c-4.6-3.4-8.8-7.1-12.3-11.6c-2.5-3.2-4.3-6.7-5.2-10.7c-0.7-3.3-0.7-6.6-0.3-10c0.4-3.4,1.4-6.6,3.1-9.6   c2.5-4.6,6.1-7.9,10.8-10.2c3-1.4,6.2-2.2,9.5-2.5C201.7,10.6,207.7,11,212.5,10.8z"></path>
	<path class="st0" d="M247.5,47.6c0-11.8,0-23.7,0-35.5c0-1.2,0-1.3,1.2-1.3c6.5,0,12.9,0,19.4,0c0.7,0,1.1,0.3,1,1   c0,0.3,0,0.6,0,0.9c0,22,0,44.1,0,66.1c0,2,0.2,4,0.8,6c1,3.4,3.4,5.1,6.7,5.7c1.1,0.2,2.1,0.2,3.2,0.2c5,0,10,0,15,0   c1.3,0,1.4,0.1,1.4,1.3c0,6.4,0,12.8,0,19.2c0,0.7-0.1,1.1-1,1.1c-7.7,0-15.5,0.1-23.2-0.1c-4.2-0.1-8.2-1.1-11.9-3.1   c-4-2.1-7-5.3-9-9.4c-1.9-3.9-2.8-8-3.2-12.3c-0.3-2.7-0.3-5.4-0.3-8.1C247.5,68.8,247.5,58.2,247.5,47.6   C247.5,47.6,247.5,47.6,247.5,47.6z"></path>
	<path class="st0" d="M281.9,147.4c-40.3,0-80.6,0-120.9,0c-0.3,0-0.6,0-0.9,0c-1,0-1.4-0.7-1-1.7c0.1-0.2,0.3-0.3,0.5-0.3   c0.3,0,0.7,0,1,0c80.9,0,161.9,0,242.8,0c0.1,0,0.3,0,0.4,0c1,0,1.4,0.7,1,1.7c-0.1,0.3-0.3,0.3-0.5,0.3c-0.3,0-0.7,0-1,0   C362.8,147.4,322.3,147.4,281.9,147.4z"></path>
	<path class="st0" d="M359,157.6c-0.1,2.5-0.3,4.8-0.4,7.2c0,0.5-0.3,0.7-0.7,0.7c-1.6,0.1-1.7,0.1-1.6-1.5c0.1-2.9,0.3-5.8,0.5-8.7   c0-0.5,0.3-0.8,0.8-0.8c2.5-0.1,2.5-0.1,3.3,2.3c0.5,1.6,0.9,3.2,1.3,4.7c0.6-2,1.2-4,1.8-6c0.2-0.8,0.6-1.1,1.4-1.1   c2.3,0,2.3,0,2.4,2.4c0.1,2.6,0.2,5.2,0.4,7.8c0,0.6-0.1,0.8-0.7,0.8c-1.8,0.1-1.8,0-1.8-1.7c0-2-0.3-4.1-0.3-6.1   c-0.7,2.2-1.4,4.3-2,6.5c-0.3,1.1-0.9,1.4-2,1.1c-0.4-0.1-0.5-0.5-0.6-0.8c-0.6-2.2-1.3-4.3-1.7-6.5   C359.1,157.9,359.1,157.8,359,157.6z"></path>
	<path class="st0" d="M292.5,160c0,1.5,0,3.1,0,4.6c0,0.7-0.3,0.9-0.9,0.9c-1.6,0-1.6,0-1.6-1.6c0-0.7,0-1.5,0-2.2   c0-0.6-0.2-0.8-0.8-0.8c-0.8,0-1.6,0-2.5,0c-0.6,0-0.7,0.3-0.7,0.8c0,1,0,2,0,3.1c0,0.5-0.2,0.7-0.7,0.8c-1.8,0.1-1.8,0.1-1.8-1.6   c0-2.7,0-5.5,0-8.2c0-1.1,0-1.1,1.3-1.1c1.2,0,1.2,0,1.2,1.1c0,0.8,0,1.5,0,2.3c0,0.5,0.2,0.8,0.7,0.8c0.8,0,1.7,0,2.6,0   c0.5,0,0.7-0.2,0.7-0.7c0-0.9,0-1.8,0-2.7c0-0.5,0.2-0.8,0.8-0.8c0.2,0,0.3,0,0.5,0c1.2,0,1.2,0,1.2,1.2   C292.5,157.1,292.5,158.6,292.5,160z"></path>
	<path class="st0" d="M195.3,158.4c0-1,0-2,0-3.1c0-0.5,0.2-0.8,0.7-0.8c0.1,0,0.1,0,0.2,0c1.7-0.1,1.8-0.1,1.7,1.7   c0,1.9,0.2,3.9-0.1,5.8c-0.6,3.4-4.6,4.9-7.3,2.8c-1.1-0.9-1.5-2.1-1.5-3.5c0-2,0-3.9,0-5.9c0-0.7,0.2-1,0.9-0.9c0.1,0,0.2,0,0.3,0   c1.3,0,1.3,0,1.3,1.3c0.1,2-0.2,4,0.1,5.9c0.2,1.3,0.9,1.9,2,1.8c0.9-0.1,1.5-0.9,1.6-2.1c0-0.1,0-0.2,0-0.3   C195.3,160.2,195.3,159.3,195.3,158.4C195.3,158.4,195.3,158.4,195.3,158.4z"></path>
	<path class="st0" d="M308.1,160.8c-0.4,1.3-0.8,2.6-1,3.9c-0.2,0.9-0.8,0.8-1.4,0.7c-0.6,0-1.2,0.2-1.5-0.7   c-0.6-2.2-1.2-4.4-1.9-6.5c-0.1-0.5,0-0.6,0.5-0.7c1.9-0.2,1.9-0.2,2.3,1.7c0.2,1.2,0.4,2.3,0.7,3.6c0.4-1.6,0.8-3.1,1.2-4.6   c0.2-0.8,0.6-0.8,1.2-0.8c0.6,0,1.1,0.1,1.2,0.8c0.3,1.4,0.7,2.9,1.1,4.5c0.3-1.6,0.6-3,0.9-4.4c0.2-0.8,1.8-1.3,2.4-0.8   c0.2,0.2,0.1,0.4,0,0.6c-0.7,2.2-1.4,4.4-2,6.7c-0.1,0.4-0.4,0.6-0.9,0.6c-1.6,0.1-1.7,0.1-2.1-1.5   C308.6,163,308.4,161.9,308.1,160.8z"></path>
	<path class="st0" d="M391.5,165.6c-2.4,0-4.2-1.7-4.2-4.1c0-2.5,1.7-4.2,4.2-4.3c2.4-0.1,4.2,1.7,4.1,4.2   C395.6,163.8,393.9,165.6,391.5,165.6z M389.9,161.7c0,0.3,0.1,0.7,0.3,1.2c0.2,0.5,0.6,0.8,1.2,0.8c0.6,0,1-0.3,1.2-0.7   c0.3-0.5,0.4-1.1,0.4-1.7c-0.1-1.3-0.7-2-1.5-2c-0.9,0-1.5,0.8-1.5,2.1C389.9,161.3,389.9,161.4,389.9,161.7z"></path>
	<path class="st0" d="M257.3,162.6c0.4-1.4,0.7-2.7,1-4c0.2-0.8,0.5-1.1,1.3-1.1c1.7,0.1,1.8-0.3,1.1,1.6c-0.8,2.1-1.4,4.2-2.4,6.3   c-0.7,1.4-1.5,2.7-3,3.3c-0.9,0.4-1,0.3-1.4-0.7c-0.3-0.8-0.2-1.2,0.7-1.6c1.2-0.6,1.4-1.1,0.9-2.4c-0.7-1.9-1.5-3.8-2.3-5.7   c-0.2-0.6-0.2-0.9,0.5-0.9c1.9,0,1.9,0,2.5,1.8C256.6,160.3,257,161.4,257.3,162.6z"></path>
	<path class="st0" d="M273.3,161.4c0,2.5-1.7,4.3-4.2,4.2c-2.4,0-4.1-1.7-4.1-4.1c0-2.5,1.8-4.3,4.3-4.3   C271.6,157.3,273.3,159,273.3,161.4z M270.6,161.3c0-0.3,0-0.7-0.1-1c-0.2-0.6-0.6-1-1.3-1.1c-0.7,0-1.1,0.4-1.3,1   c-0.4,0.9-0.3,1.8,0.1,2.7c0.2,0.5,0.6,0.8,1.2,0.8c0.6,0,1-0.3,1.2-0.8C270.6,162.4,270.6,161.9,270.6,161.3z"></path>
	<path class="st0" d="M378.4,161.4c0-1,0-2.1,0-3.1c0-0.5,0.2-0.8,0.7-0.7c0.5,0.1,1.3-0.4,1.5,0.6c0.1,0.3,0.3,0,0.5-0.1   c2.2-1.5,4.4-0.6,4.8,2c0.2,1.6,0.1,3.2,0.1,4.7c0,0.4-0.2,0.6-0.6,0.6c-1.8,0.2-2,0.1-2-1.7c0-1,0-2,0-3c0-0.7-0.3-1.3-1.1-1.4   c-0.7-0.1-1.3,0.6-1.4,1.5c0,1.1,0,2.2,0,3.3c0,0.4,0.2,1-0.2,1.2c-0.6,0.3-1.3,0.2-2,0c-0.3-0.1-0.3-0.5-0.3-0.7   C378.4,163.6,378.4,162.5,378.4,161.4C378.4,161.4,378.4,161.4,378.4,161.4z"></path>
	<path class="st0" d="M199.8,161.5c0-0.9,0.1-2.1-0.1-3.2c-0.1-0.6,0.2-0.9,0.8-0.8c0.6,0.1,1.4-0.4,1.6,0.6c0,0.2,0.3,0,0.4-0.1   c2.3-1.6,4.5-0.6,4.8,2.1c0.2,1.5,0.1,3,0.1,4.5c0,0.5-0.2,0.7-0.8,0.8c-1.8,0.1-1.8,0.1-1.8-1.7c0-1,0-1.9,0-2.9   c0-0.9-0.4-1.4-1.1-1.5c-0.7,0-1.3,0.6-1.3,1.5c0,1.2,0,2.5,0,3.7c0,0.6-0.2,0.9-0.8,0.8c-1.9,0-1.6,0.1-1.7-1.6   C199.8,163.1,199.8,162.4,199.8,161.5z"></path>
	<path class="st0" d="M301.1,162.7c0,0.7,0,1.3,0,2c0,0.6-0.2,0.9-0.8,0.8c-0.5-0.1-1.2,0.3-1.6-0.5c-0.1-0.2-0.3,0.1-0.5,0.2   c-0.7,0.4-1.4,0.6-2.1,0.5c-1.2-0.2-1.9-0.9-2.1-2c-0.2-1.1,0.3-2.2,1.3-2.8c0.8-0.5,1.7-0.5,2.5-0.7c0.2,0,0.6,0.1,0.6-0.3   c0-0.3-0.3-0.5-0.6-0.6c-0.7-0.2-1.3-0.1-2,0.1c-0.5,0.2-0.9,0.4-1.1-0.4c-0.2-0.7-0.2-1.1,0.6-1.3c1.1-0.3,2.2-0.5,3.3-0.3   c1.2,0.2,2.1,1.1,2.3,2.3c0.1,0.5,0.1,1,0.1,1.5C301.1,161.7,301.1,162.2,301.1,162.7C301.1,162.7,301.1,162.7,301.1,162.7z    M296.5,162.9c0,0.4,0.1,0.6,0.4,0.7c0.5,0.2,0.9,0,1.2-0.3c0.4-0.4,0.5-0.9,0.4-1.4c0-0.1-0.1-0.2-0.2-0.2   c-0.5-0.1-0.9,0.1-1.4,0.2C296.7,162.2,296.5,162.5,296.5,162.9z"></path>
	<path class="st0" d="M321.7,162.6c0,0.7,0,1.5,0,2.2c0,0.5-0.2,0.7-0.6,0.6c-0.6-0.1-1.3,0.3-1.8-0.5c-0.1-0.2-0.3,0.1-0.5,0.1   c-0.7,0.4-1.5,0.6-2.4,0.4c-1-0.3-1.7-0.9-1.8-1.9c-0.2-1.1,0.1-2,1.1-2.7c0.8-0.6,1.8-0.7,2.7-0.9c0.2,0,0.6,0.1,0.6-0.3   c0-0.3-0.3-0.5-0.6-0.6c-0.7-0.2-1.5-0.1-2.2,0.2c-0.3,0.1-0.7,0.4-0.8-0.2c-0.1-0.5-0.6-1.1,0.2-1.4c1.3-0.5,2.6-0.7,3.9-0.3   c1.3,0.4,2,1.4,2.1,3C321.7,161.1,321.7,161.9,321.7,162.6C321.7,162.6,321.7,162.6,321.7,162.6z M319.2,162.4   c0-0.3,0.1-0.6-0.4-0.7c-0.8,0-1.6,0.5-1.7,1.1c0,0.6,0.3,0.9,0.9,0.9C318.7,163.8,319.2,163.2,319.2,162.4z"></path>
	<path class="st0" d="M403.7,162.6c0,0.7,0,1.4,0,2.1c0,0.5-0.2,0.8-0.7,0.7c-0.6-0.1-1.2,0.3-1.7-0.4c-0.2-0.3-0.4,0.1-0.6,0.2   c-1.8,1-3.9,0.1-4.1-1.9c-0.2-1.2,0.7-2.4,2-2.9c0.6-0.2,1.2-0.3,1.8-0.4c0.2,0,0.5,0.1,0.6-0.3c0-0.3-0.2-0.5-0.5-0.6   c-0.7-0.2-1.4-0.1-2.1,0.1c-0.4,0.1-0.9,0.5-1-0.3c-0.1-0.6-0.5-1.1,0.5-1.4c1.2-0.3,2.3-0.5,3.5-0.3c1.4,0.3,2.2,1.4,2.4,3.1   C403.7,161.2,403.7,161.9,403.7,162.6C403.7,162.6,403.7,162.6,403.7,162.6z M399.1,162.9c0,0.4,0.2,0.6,0.5,0.8   c0.4,0.2,0.8,0,1.1-0.2c0.5-0.4,0.7-1.5,0.3-1.6c-0.5-0.2-0.9,0.1-1.4,0.2C399.3,162.2,399.1,162.5,399.1,162.9z"></path>
	<path class="st0" d="M345.4,161.9c0,1-0.1,2,0.1,2.9c0.1,0.5-0.1,0.8-0.6,0.7c-0.6-0.1-1.3,0.3-1.8-0.4c-0.2-0.2-0.4,0.1-0.7,0.2   c-1.1,0.6-2.2,0.6-3.3-0.2c-1.4-1.2-1.1-3.2,0.5-4.2c0.8-0.5,1.7-0.5,2.5-0.7c0.2,0,0.5,0.1,0.6-0.2c0-0.3-0.2-0.5-0.5-0.6   c-0.8-0.2-1.5-0.2-2.2,0.1c-0.4,0.1-0.8,0.3-0.9-0.3c-0.1-0.5-0.5-1.1,0.3-1.3c1.2-0.4,2.5-0.6,3.8-0.3c1.3,0.3,2.1,1.3,2.1,2.6   C345.4,160.7,345.4,161.4,345.4,161.9z M342.9,162.5c-0.1-0.3,0.2-0.8-0.5-0.8c-0.8,0-1.6,0.5-1.6,1.1c0,0.5,0.3,0.8,0.8,0.9   C342.3,163.8,342.9,163.2,342.9,162.5z"></path>
	<path class="st0" d="M376.5,161.8c0,1,0,1.9,0.1,2.9c0.1,0.6-0.1,0.9-0.7,0.8c-0.6-0.1-1.2,0.3-1.6-0.5c-0.1-0.2-0.4,0.1-0.6,0.2   c-0.7,0.4-1.5,0.6-2.4,0.4c-1.1-0.3-1.7-1-1.9-2.1c-0.2-1,0.4-2.1,1.3-2.7c0.8-0.5,1.7-0.6,2.6-0.7c0.2,0,0.5,0.1,0.5-0.2   c0-0.3-0.2-0.5-0.5-0.6c-0.7-0.2-1.4-0.1-2.1,0.1c-0.5,0.1-0.9,0.4-1.1-0.4c-0.2-0.7-0.2-1.1,0.6-1.4c1.1-0.3,2.3-0.5,3.4-0.2   c1.3,0.3,2.2,1.3,2.2,2.7C376.5,160.6,376.5,161.2,376.5,161.8z M374,162.4c0-0.5-0.1-0.6-0.5-0.6c-0.8,0-1.7,0.6-1.6,1.2   c0.1,0.5,0.4,0.8,0.9,0.8C373.5,163.8,374,163.2,374,162.4z"></path>
	<path class="st0" d="M226.6,162.2c-0.6,0-1.2,0-1.9,0c-0.2,0-0.4,0-0.5,0.2c-0.1,0.2,0.1,0.4,0.2,0.5c0.4,0.5,0.9,0.6,1.5,0.7   c0.6,0,1.2,0.1,1.9-0.1c0.3-0.1,0.7-0.2,0.8,0.3c0,0.5,0.6,1.2-0.3,1.4c-1.5,0.5-3.1,0.5-4.6-0.1c-1.5-0.7-2.3-2.5-2-4.4   c0.4-1.9,1.7-3.3,3.4-3.4c2.6-0.2,4.3,1.4,4.1,4c0,0.6-0.2,0.9-0.9,0.8C227.7,162.2,227.2,162.2,226.6,162.2   C226.6,162.2,226.6,162.2,226.6,162.2z M225.4,160.6c0.4-0.2,1.2,0.4,1.3-0.5c0.1-0.5-0.6-1.1-1.2-1.1c-0.5,0-1.4,0.6-1.3,1.1   C224.3,161,225,160.4,225.4,160.6z"></path>
	<path class="st0" d="M275,162.3c0-0.7,0-1.4,0-2c0-0.5,0.1-0.9-0.7-1c-0.5-0.1-0.3-0.6-0.3-0.9c0-0.3-0.1-0.8,0.4-0.8   c0.6,0,0.6-0.4,0.7-0.9c0.2-2,1.7-3.1,3.7-2.9c0.9,0.1,0.8,0.7,0.8,1.3c0,0.6-0.1,0.8-0.8,0.7c-0.5-0.1-0.9,0.2-1.1,0.7   c-0.3,0.7-0.1,1,0.6,0.9c0.7,0,0.9,0.3,0.9,0.9c0,0.7-0.2,1-0.9,0.9c-0.6-0.1-0.7,0.2-0.7,0.8c0,1.5,0,2.9,0,4.4c0,0.7-0.2,1-0.9,1   c-1.6,0-1.6,0-1.6-1.6C275,163.4,275,162.8,275,162.3z"></path>
	<path class="st0" d="M217,162.5c0.4-1.4,0.8-2.7,1.1-4.1c0.2-0.7,0.5-1,1.2-1c1.8,0,1.8,0,1.1,1.7c-0.7,1.8-1.3,3.6-2,5.4   c-0.2,0.6-0.6,0.9-1.2,0.9c-2,0-1.5,0.1-2.1-1.5c-0.7-1.9-1.4-3.8-2.1-5.7c-0.2-0.6-0.2-0.8,0.5-0.8c2.3,0.1,1.8-0.4,2.5,1.8   C216.4,160.4,216.6,161.4,217,162.5C216.9,162.5,217,162.5,217,162.5z"></path>
	<path class="st0" d="M279.2,133.3c0.1,0.8,0,1.6-0.4,2.3c-0.3,0.6-0.2,1,0.2,1.4c0.2,0.2,0.3,0.4,0.4,0.6c0.1,0.1,0.1,0.3,0,0.4   c-0.1,0.1-0.3,0.1-0.4,0c-0.1,0-0.1-0.1-0.1-0.1c-0.6-1.2-1.3-0.7-2.2-0.2c-2.3,1.2-5.7,0.8-7.2-1.7c-1.2-1.9-0.8-5,1-6.4   c0.5-0.4,0.6-0.7,0.2-1.3c-0.8-1.3-0.2-2.5,1.3-2.7c1.5-0.1,2.9,0,4.4,0c0.3,0,0.6,0,0.6,0.4c0,0.4-0.4,0.4-0.7,0.4   c-1.4,0-2.7,0-4.1,0c-0.4,0-0.9-0.1-1.1,0.4c-0.2,0.5,0,1,0.3,1.3c0.8,0.9,1.5,1.8,2.3,2.7c1.2,1.3,2.4,2.7,3.5,4   c0.2,0.2,0.3,0.5,0.7,0.5c0.4-0.1,0.4-0.5,0.5-0.7c0.4-1.5,0.2-2.9-0.8-4.1c-0.2-0.2-0.6-0.4-0.2-0.8c0.3-0.3,0.6,0.1,0.8,0.3   C278.9,131,279.3,132.1,279.2,133.3z M273.9,137.7c1,0,2-0.2,2.8-0.7c0.5-0.4,0.6-0.7,0.2-1.2c-1.5-1.7-3-3.5-4.5-5.3   c-0.7-0.8-0.9-0.9-1.7-0.1c-0.2,0.2-0.4,0.4-0.5,0.6c-0.9,1.5-1,3-0.3,4.5C270.7,137.1,272.2,137.6,273.9,137.7z"></path>
	<path class="st0" d="M238.8,165.6c-0.7,0-1.2-0.1-1.8-0.3c-0.6-0.2-0.8-0.5-0.6-1.1c0.2-0.8,0.4-1.1,1.2-0.7   c0.4,0.2,0.9,0.3,1.4,0.2c0.3-0.1,0.6-0.1,0.7-0.5c0.1-0.4-0.2-0.6-0.5-0.7c-0.4-0.2-0.9-0.4-1.3-0.6c-0.9-0.5-1.5-1.1-1.4-2.2   c0.1-1.1,0.6-1.8,1.6-2.2c1.1-0.4,2.2-0.4,3.2-0.1c0.8,0.2,0.4,0.8,0.3,1.3c-0.1,0.5-0.4,0.6-0.9,0.4c-0.4-0.2-0.8-0.2-1.2-0.1   c-0.3,0-0.6,0.1-0.6,0.4c-0.1,0.3,0.2,0.5,0.4,0.7c0.4,0.2,0.8,0.3,1.2,0.5c1.3,0.6,1.7,1.3,1.6,2.7c-0.1,1-0.8,1.8-2,2.1   C239.7,165.6,239.2,165.7,238.8,165.6z"></path>
	<path class="st0" d="M350.4,165.6c-1.8,0-2.7-0.9-2.8-2.6c0-1,0-1.9,0-2.9c0-0.4-0.1-0.7-0.6-0.8c-0.6,0-0.5-0.5-0.4-0.8   c0-0.4-0.2-0.9,0.4-0.9c0.5-0.1,0.6-0.3,0.6-0.7c-0.1-0.7,0.3-0.9,0.8-1c0.2,0,0.3-0.1,0.5-0.1c1.2-0.3,1.2-0.3,1.2,0.9   c0,0.7,0.2,1.1,0.9,1c0.7-0.1,0.8,0.3,0.8,0.9c0,0.6-0.1,1-0.8,0.9c-0.7-0.1-1,0.2-0.9,0.9c0,0.7,0,1.5,0,2.2c0,0.5,0.2,1,0.8,1   c0.9,0,0.8,0.6,0.9,1.2c0.1,0.8-0.4,0.9-1,1C350.7,165.6,350.5,165.6,350.4,165.6z"></path>
	<path class="st0" d="M251.2,165.6c-1.8,0-2.8-0.9-2.8-2.6c0-1,0-1.9,0-2.9c0-0.3,0-0.7-0.5-0.8c-0.7,0-0.5-0.5-0.5-0.9   c0-0.4-0.1-0.9,0.6-0.9c0.4,0,0.5-0.3,0.4-0.6c-0.1-0.8,0.4-1,1-1.2c0.1,0,0.2-0.1,0.3-0.1c1.2-0.3,1.2-0.3,1.2,0.9   c0,0.7,0.2,1.1,0.9,1c0.7-0.1,0.8,0.3,0.8,0.9c0,0.6-0.1,1-0.8,0.9c-0.7-0.1-0.9,0.3-0.9,0.9c0,0.7,0,1.4,0,2.1   c0,0.5,0.2,1.1,0.9,1.1c0.7,0,0.8,0.3,0.8,0.9c0,0.6-0.1,1.1-0.8,1.2C251.5,165.6,251.2,165.6,251.2,165.6z"></path>
	<path class="st0" d="M286.1,131.9c0-1.8,0-3.6,0-5.4c0-0.4,0.1-0.7,0.5-0.7c2.9-0.4,6.3,0.4,7.8,3.3c1.6,3.1,0.4,7.1-2.7,8.6   c-1.2,0.6-2.4,0.7-3.7,0.6c-0.3,0-0.5-0.1-0.5-0.4c0-0.3,0.3-0.4,0.6-0.4c0.5,0,1,0,1.5,0c3.4-0.2,5.1-3.6,4.6-6.5   c-0.5-2.6-2.6-4.4-5.3-4.5c-2.3-0.1-2-0.2-2,1.9c0,2.8,0,5.6,0,8.3c0,0.2,0,0.4,0,0.6c0,0.3,0.1,0.8-0.4,0.8   c-0.4,0-0.3-0.5-0.3-0.8C286.1,135.5,286.1,133.7,286.1,131.9C286.1,131.9,286.1,131.9,286.1,131.9z"></path>
	<path class="st0" d="M232.9,158.6c0.5-0.8,1.1-1.2,1.9-1.3c0.5,0,0.8,0.1,0.8,0.6c0,0.3,0,0.6,0,0.8c0,0.6-0.1,0.9-0.8,0.9   c-1.1,0.1-1.6,0.6-1.6,1.7c0,1.1,0,2.2,0,3.3c0,0.5-0.2,0.7-0.8,0.8c-1.9,0.1-1.9,0.1-1.9-1.8c0-1.7,0-3.3,0-5   c0-0.4-0.3-1.1,0.6-1.1C232.4,157.4,232.6,157.5,232.9,158.6z"></path>
	<path class="st0" d="M179.1,138.2c-0.7,0-1.3,0-2,0c-0.3,0-0.7,0-0.7-0.4c0-0.5,0.4-0.4,0.7-0.4c1,0,1.9,0,2.9,0c0.5,0,1,0,1.5-0.1   c1.4-0.2,2.2-0.9,2.3-2c0.1-1.1-0.7-2.3-1.9-2.7c-1.2-0.4-2.4-0.7-3.6-1.2c-1.3-0.5-2-1.5-2-3c0-1.4,1-2.5,2.4-2.7   c1.5-0.2,3-0.1,4.5-0.1c0.3,0,0.7,0,0.7,0.4c0,0.4-0.5,0.4-0.8,0.4c-1.3,0-2.6,0-3.9,0c-1.8,0.1-2.7,1.6-1.9,3.1   c0.4,0.7,1.1,1,1.8,1.3c1.2,0.4,2.5,0.7,3.6,1.3c1.3,0.7,2,1.8,1.8,3.3c-0.1,1.3-1,2.1-2.4,2.5   C181.2,138.3,180.2,138.2,179.1,138.2z"></path>
	<path class="st0" d="M359,134.9c0,0.8,0,1.5,0,2.3c0,0.3,0.1,0.9-0.4,0.9c-0.5,0-0.4-0.5-0.4-0.9c0-1.6,0-3.2,0-4.8   c0-1.3-0.8-2.2-1.9-2.3c-1.3-0.1-2.4,0.8-2.4,2.2c0,1.6,0,3.1,0,4.7c0,0.3,0,0.5,0,0.8c0,0.2-0.1,0.3-0.3,0.3   c-0.2,0-0.3-0.2-0.3-0.3c0-0.3,0-0.6,0-0.8c0-1.5,0-3,0-4.5c0-1.4-0.9-2.3-2.1-2.3c-1.3,0-2.2,0.9-2.2,2.3c0,1.7,0,3.3-0.1,5   c0,0.3,0.1,0.7-0.4,0.7c-0.4,0-0.3-0.4-0.3-0.7c0-1.7,0-3.4,0-5.1c0.1-1.4,0.7-2.4,2.1-2.8c1.2-0.4,2.3-0.1,3.1,0.9   c0.2,0.3,0.3,0.3,0.6,0c0.9-1.1,2-1.4,3.3-0.9c1.3,0.6,1.8,1.7,1.8,3.1C358.9,133.4,359,134.1,359,134.9z"></path>
	<path class="st0" d="M258.5,130.1c-1.6-0.1-3.5,1.5-3.6,3.4c-0.2,1.9,0.9,3.6,2.7,4.1c1.6,0.5,3.4-0.4,4.2-2.1   c0.1-0.3,0.2-0.6,0.3-1c0.1-0.2,0.1-0.5,0.4-0.4c0.3,0.1,0.2,0.3,0.2,0.6c-0.1,2-2.3,3.9-4.3,3.7c-2.2-0.1-3.7-1.4-4.2-3.7   c-0.4-1.8,0.6-3.9,2.2-4.8c1.8-1,4.1-0.5,5.4,1.1c0.3,0.4,0.3,0.6-0.2,0.9c-1.6,1.1-3.2,2.2-4.8,3.4c-0.3,0.2-0.6,0.5-0.9,0.1   c-0.3-0.4,0.1-0.5,0.4-0.7c1.3-0.9,2.7-1.8,4-2.8c0.7-0.5,0.7-0.8,0-1.2C259.8,130.3,259.2,130,258.5,130.1z"></path>
	<path class="st0" d="M301.1,130.1c-2.1,0-3.7,1.5-3.9,3.6c-0.2,1.8,1.2,3.6,3,4c1.8,0.3,3.6-0.9,4.1-2.8c0.1-0.3,0-0.9,0.5-0.8   c0.5,0.1,0.2,0.6,0.1,1c-0.4,1.8-2,3.2-3.9,3.3c-1.9,0.1-3.7-1.1-4.4-2.9c-1-2.8,0.7-5.7,3.6-6.1c1.5-0.2,2.8,0.4,3.8,1.5   c0.4,0.4,0.3,0.7-0.1,1c-1.7,1.1-3.3,2.3-4.9,3.4c-0.2,0.2-0.5,0.3-0.7,0c-0.2-0.3,0-0.5,0.2-0.7c1.2-0.8,2.3-1.6,3.5-2.4   c0.4-0.3,1.2-0.4,1-1.1c-0.1-0.6-0.8-0.8-1.4-1C301.5,130.1,301.2,130.1,301.1,130.1z"></path>
	<path class="st0" d="M364.9,130.1c-2,0-3.5,1.5-3.7,3.6c-0.1,1.8,1.2,3.6,3,3.9c1.8,0.3,3.6-0.8,4.1-2.6c0.1-0.3,0-1,0.5-0.9   c0.6,0.1,0.2,0.7,0.1,1.1c-0.7,2.4-2.7,3.6-5.2,3c-2.1-0.4-3.5-2.6-3.2-4.9c0.4-3.5,3.9-5.1,6.8-3.2c0.3,0.2,0.5,0.4,0.7,0.6   c0.5,0.4,0.4,0.8-0.1,1.2c-1.6,1.1-3.3,2.2-4.9,3.4c-0.2,0.1-0.4,0.3-0.7,0.1c-0.2-0.3,0-0.5,0.2-0.7c1.2-0.8,2.4-1.7,3.6-2.5   c0.4-0.3,1-0.4,0.9-1c-0.1-0.6-0.7-0.7-1.2-0.9C365.6,130.1,365.2,130.1,364.9,130.1z"></path>
	<path class="st0" d="M214.2,130.1c-2,0-3.5,1.5-3.7,3.6c-0.2,1.9,1.2,3.5,3.1,3.9c1.7,0.3,3.5-0.9,4.1-2.7c0.1-0.3,0-0.9,0.5-0.8   c0.5,0.1,0.2,0.6,0.1,1c-0.5,2.2-2.5,3.6-4.7,3.3c-2.4-0.4-4-2.3-3.8-4.7c0.2-1.8,0.9-3.3,2.7-4c1.7-0.7,3.2-0.3,4.6,0.9   c0.8,0.7,0.8,1-0.1,1.6c-1.5,1-3,2.1-4.5,3.1c-0.2,0.2-0.5,0.6-0.8,0.2c-0.3-0.5,0.2-0.6,0.5-0.8c1.3-0.9,2.6-1.8,3.9-2.7   c0.7-0.5,0.7-0.7,0-1.2C215.5,130.3,214.8,130,214.2,130.1z"></path>
	<path class="st0" d="M318.6,130.1c-1.9,0-3.4,1.5-3.6,3.5c-0.2,1.8,1.2,3.7,3,4c1.8,0.3,3.6-0.8,4.1-2.6c0-0.2,0.1-0.3,0.1-0.5   c0.1-0.2,0.1-0.5,0.4-0.4c0.3,0.1,0.3,0.3,0.3,0.6c-0.1,1.1-0.6,1.9-1.4,2.7c-1.3,1.3-3.3,1.5-5,0.6c-1.5-0.8-2.5-2.8-2.3-4.4   c0.3-1.8,1.1-3.1,2.8-3.8c1.6-0.6,3.1-0.3,4.4,0.8c0.9,0.8,0.9,1.1-0.1,1.8c-1.5,1-2.9,2-4.4,3c-0.2,0.2-0.5,0.5-0.8,0.2   c-0.3-0.4,0-0.6,0.3-0.8c1.3-0.9,2.6-1.8,3.9-2.7c0.7-0.5,0.7-0.8,0-1.3C319.8,130.3,319.2,130,318.6,130.1z"></path>
	<path class="st0" d="M338.1,137.4c0-1.3,0-2.6,0-3.8c0.1-1.9,1.3-3.6,3.1-4.1c2.2-0.6,4.3,0.7,5,3.1c0.8,2.6-0.9,5.4-3.5,5.7   c-1.1,0.1-2-0.1-2.9-0.8c-0.2-0.2-0.5-0.4-0.3-0.7c0.2-0.4,0.5,0,0.7,0.1c1.4,0.9,2.7,0.9,3.9,0c1.3-1,1.8-2.9,1.2-4.6   c-0.5-1.4-1.8-2.3-3.2-2.3c-1.8,0-3.3,1.6-3.4,3.8c0,2.4,0,4.9,0,7.3c0,0.4,0.2,1-0.4,1c-0.6,0-0.4-0.6-0.4-1   C338.1,139.9,338.1,138.7,338.1,137.4C338.1,137.4,338.1,137.4,338.1,137.4z"></path>
	<path class="st0" d="M207.9,130.5c0,1.3,0.1,2.6,0,3.8c-0.2,2.7-2.9,5.2-6.1,3.4c-1.5-0.8-2.1-2.3-2.1-4c0-2.2,1.2-4.1,3.6-4.5   c1.1-0.2,2,0.2,2.8,0.9c0.2,0.2,0.4,0.4,0.2,0.7c-0.2,0.3-0.5,0-0.6-0.1c-1.9-1.6-4.6-0.4-5.2,2.2c-0.3,1.6,0,3.1,1.4,4.1   c1.8,1.3,4.3,0.4,4.9-1.8c0.2-0.5,0.2-1.1,0.2-1.7c0-2.2,0-4.4,0-6.6c0-0.2,0-0.5,0-0.7c0-0.2,0.1-0.5,0.4-0.5   c0.3,0,0.3,0.3,0.3,0.5c0,0.9,0,1.8,0,2.7C208,129.5,208,130,207.9,130.5C208,130.5,207.9,130.5,207.9,130.5z"></path>
	<path class="st0" d="M246.2,161.5c0,1,0,2.1,0,3.1c0,0.6-0.2,0.8-0.8,0.8c-1.8,0.1-1.8,0.1-1.8-1.7c0-1.8,0-3.6,0-5.3   c0-0.7,0.2-0.9,0.9-0.9c1.9,0,1.7-0.2,1.7,1.7C246.2,160,246.2,160.8,246.2,161.5z"></path>
	<path class="st0" d="M326.1,161.5c0,1,0,2,0,3.1c0,0.6-0.2,0.9-0.9,0.9c-1.8,0-1.8,0.1-1.8-1.7c0-1.8,0-3.5,0-5.3c0-0.7,0.2-1,1-1   c1.9,0.1,1.7-0.2,1.7,1.7C326.1,160,326.1,160.7,326.1,161.5z"></path>
	<path class="st0" d="M333.8,161.5c0,1,0,2,0,3c0,0.6-0.2,0.9-0.9,0.9c-1.8,0-1.8,0-1.8-1.7c0-1.8,0-3.5,0-5.3c0-0.7,0.2-1,1-1   c1.7,0,1.7,0,1.7,1.6C333.8,159.9,333.8,160.7,333.8,161.5z"></path>
	<path class="st0" d="M211.7,161.5c0,1.1,0,2.2,0,3.2c0,0.6-0.2,0.8-0.8,0.8c-1.7,0-1.7,0.1-1.7-1.6c0-1.8,0-3.7,0-5.5   c0-0.6,0.2-0.9,0.8-0.8c2.1,0,1.6-0.2,1.7,1.6C211.7,159.9,211.7,160.7,211.7,161.5C211.7,161.5,211.7,161.5,211.7,161.5z"></path>
	<path class="st0" d="M336.5,133.9c0,2.5-1.9,4.5-4.3,4.5c-2.3,0-4.3-2.1-4.3-4.6c0-2.4,2.1-4.5,4.3-4.5   C334.6,129.4,336.5,131.5,336.5,133.9z M332.3,130.1c-1.9,0-3.5,1.7-3.5,3.9c0,1.9,1.7,3.6,3.5,3.7c1.9,0,3.5-1.7,3.5-3.7   C335.8,131.8,334.2,130.1,332.3,130.1z"></path>
	<path class="st0" d="M377.5,135.1c0,0.8,0,1.6,0,2.4c0,0.3,0,0.6-0.4,0.6c-0.3,0-0.3-0.3-0.3-0.6c0-1.5,0-3,0-4.5   c0-1.5-1-2.8-2.3-2.9c-1.6-0.1-2.8,1-2.9,2.5c0,1.4,0,2.9,0,4.3c0,0.3,0,0.5-0.1,0.8c0,0.2-0.1,0.4-0.4,0.4c-0.2,0-0.3-0.2-0.4-0.4   c0-0.6-0.1-1.2-0.1-1.9c0-1.2-0.1-2.5,0.2-3.7c0.4-1.7,1.9-2.9,3.5-2.8c1.8,0.2,3.2,1.6,3.2,3.5   C377.5,133.6,377.5,134.3,377.5,135.1C377.5,135.1,377.5,135.1,377.5,135.1z"></path>
	<path class="st0" d="M309.6,137.5c0.4-1.1,0.9-2.3,1.3-3.4c0.5-1.3,1-2.5,1.5-3.8c0-0.1,0.1-0.2,0.1-0.3c0.1-0.3,0.3-0.4,0.6-0.3   c0.4,0.1,0.2,0.4,0.1,0.6c-0.8,2.1-1.6,4.2-2.4,6.3c-0.1,0.3-0.2,0.6-0.3,1c-0.2,0.5-0.5,0.9-1,0.9c-0.6,0-0.8-0.4-1-0.9   c-0.7-1.9-1.5-3.9-2.2-5.8c-0.2-0.4-0.4-0.9-0.5-1.3c-0.1-0.2-0.3-0.5,0-0.7c0.4-0.2,0.6,0.1,0.7,0.4c0.4,0.9,0.7,1.8,1.1,2.8   c0.5,1.4,1.1,2.8,1.6,4.2C309.3,137.2,309.3,137.4,309.6,137.5z"></path>
	<path class="st0" d="M226,135.1c0-0.7,0-1.5,0-2.2c-0.1-1.6-1.3-2.8-2.7-2.8c-1.4,0-2.6,1.2-2.6,2.8c0,1.5,0,2.9,0,4.4   c0,0.3,0.1,0.7-0.3,0.8c-0.4,0-0.4-0.4-0.4-0.7c0-1.6-0.1-3.1,0-4.7c0.1-1.8,1.5-3.2,3.2-3.3c1.6-0.1,3.2,1,3.5,2.8   c0.3,1.8,0.1,3.6,0.1,5.4c0,0.2-0.1,0.6-0.4,0.5c-0.3,0-0.3-0.3-0.3-0.5C226,136.7,226,135.9,226,135.1   C226,135.1,226,135.1,226,135.1z"></path>
	<path class="st0" d="M198.1,132.9c0,0.7,0,1.5,0,2.2c-0.1,1.9-1.4,3.2-3.2,3.3c-1.8,0.1-3.3-1.2-3.5-3c-0.1-1.7-0.1-3.4-0.1-5.2   c0-0.3,0.1-0.6,0.4-0.5c0.3,0,0.3,0.4,0.3,0.6c0,1.5,0,3.1,0,4.6c0,1.8,1.4,3,3,2.8c1.3-0.2,2.3-1.4,2.3-2.9c0-1.4,0-2.9,0-4.3   c0-0.3-0.1-0.7,0.3-0.7c0.4,0,0.3,0.4,0.3,0.6C198.3,131.2,198.1,132,198.1,132.9z"></path>
	<path class="st0" d="M249.5,132.8c0-1.4,0-2.8,0-4.2c-0.1-2.4,2-3.1,3.6-2.9c0.2,0,0.5,0.1,0.5,0.4c0,0.3-0.2,0.4-0.5,0.4   c-0.3,0-0.6,0-0.9,0c-1.4,0.1-2.2,1.2-1.9,2.6c0.1,0.4,0.4,0.4,0.7,0.5c0.7,0,1.4,0,2,0c0.2,0,0.6,0,0.6,0.4c0,0.4-0.3,0.3-0.6,0.3   c-0.6,0-1.1,0-1.7,0c-0.8-0.1-1.1,0.3-1.1,1.1c0,1.9,0,3.7,0,5.6c0,0.2,0,0.5,0,0.7c0,0.2-0.1,0.5-0.4,0.5c-0.3,0-0.3-0.3-0.3-0.5   c0-0.7,0-1.5,0-2.2C249.5,134.5,249.5,133.7,249.5,132.8z"></path>
	<path class="st0" d="M379.6,131.8c0-1.2,0-2.5,0-3.7c0-0.3,0-0.6,0.4-0.6c0.4,0,0.4,0.4,0.4,0.6c0.1,0.5-0.3,1,0.2,1.3   c0.4,0.3,0.9,0,1.4,0.1c0.4,0.1,1.2-0.2,1.2,0.4c0,0.6-0.7,0.3-1.2,0.3c-1.6,0-1.6,0-1.6,1.6c0,1.2,0,2.4,0,3.7   c0,1.4,0.4,1.8,1.7,1.9c0.4,0,1.1-0.2,1,0.4c0,0.6-0.7,0.4-1.1,0.4c-1.5-0.1-2.4-1-2.5-2.5c0-0.6,0-1.3,0-2   C379.5,133.1,379.5,132.4,379.6,131.8C379.5,131.8,379.5,131.8,379.6,131.8z"></path>
	<path class="st0" d="M239.4,130.5c0,1.2,0,2.4,0,3.6c0,2.4,1,3.4,3.4,3.4c0.4,0,0.7,0,1.1,0c0.2,0,0.5,0.1,0.5,0.4   c0,0.2-0.2,0.3-0.4,0.4c-3,0.8-5.3-0.9-5.3-4c0-2.5,0-5.1,0-7.6c0-0.3-0.1-0.8,0.4-0.8c0.5,0,0.3,0.5,0.3,0.8   C239.4,127.9,239.4,129.2,239.4,130.5C239.4,130.5,239.4,130.5,239.4,130.5z"></path>
	<path class="st0" d="M186.4,132c0-1.3,0-2.6,0-3.9c0-0.3,0-0.6,0.4-0.6c0.3,0,0.3,0.3,0.4,0.6c0.1,1.5,0.1,1.4,1.7,1.5   c0.4,0,1.2-0.2,1.2,0.4c0,0.6-0.8,0.3-1.2,0.3c-1.6,0-1.6,0-1.6,1.7c0,1.2,0,2.4,0,3.7c0,1.3,0.5,1.8,1.9,1.9c0.1,0,0.3,0,0.4,0   c0.3,0,0.6,0,0.6,0.4c0,0.3-0.3,0.3-0.6,0.4c-1.9,0.2-3-0.8-3-2.7C186.4,134.3,186.4,133.2,186.4,132z"></path>
	<path class="st0" d="M228.8,131.9c0-1.2,0-2.5,0-3.7c0-0.3-0.1-0.7,0.4-0.7c0.4,0,0.4,0.4,0.4,0.7c0,1.4-0.1,1.3,1.4,1.3   c0.3,0,0.6,0,0.9,0c0.3,0,0.6,0,0.6,0.4c0,0.4-0.3,0.3-0.6,0.3c-0.5,0-1,0-1.5,0c-0.6,0-0.9,0.2-0.8,0.9c0,1.5,0,2.9,0,4.4   c0,1.4,0.5,1.9,2,2c0.3,0,1-0.3,1,0.3c0,0.6-0.6,0.4-1,0.4c-1.6,0-2.6-0.9-2.6-2.6C228.8,134.4,228.8,133.1,228.8,131.9z"></path>
	<path class="st0" d="M325.6,132c0,1.8,0,3.5,0,5.3c0,0.3,0.1,0.8-0.4,0.8c-0.4,0-0.3-0.5-0.3-0.7c0-3.6,0-7.2,0-10.8   c0-0.3-0.1-0.7,0.4-0.7c0.4,0,0.3,0.5,0.3,0.7C325.6,128.4,325.6,130.2,325.6,132z"></path>
	<path class="st0" d="M329.3,158.4c-0.6,0.1-1-0.3-1.2-0.9c-0.4-0.9-0.9-1.9-1.2-2.9c-0.2-0.5-0.1-0.7,0.5-0.7c0.3,0,0.5,0,0.8,0   c0.7-0.1,1,0.2,1.1,0.9c0.2,1,0.5,2,0.8,3C330.1,158.3,330,158.5,329.3,158.4z"></path>
	<path class="st0" d="M165.2,153c0.6-0.3,1.2-0.3,1.8-0.1c1.4,0.3,2.8,0.3,4.3,0c1.2-0.2,2.5-0.2,3.7,0.3c0.6,0.3,1.4-0.1,2.1,0.4   c-0.5,0.4-1.1,0.3-1.5,0.1c-1.9-0.5-3.7-0.7-5.5,0.1c-0.4,0.2-0.8,0.1-1.2,0c-1.1-0.3-2.2-0.4-3.3-0.5   C165.5,153.3,165.3,153.2,165.2,153z"></path>
	<path class="st0" d="M246.8,133.8c0,1.2,0,2.4,0,3.6c0,0.3,0,0.7-0.4,0.7c-0.5,0-0.4-0.4-0.4-0.7c0-2.4,0-4.8,0-7.1   c0-0.3,0-0.6,0.3-0.6c0.4,0,0.4,0.3,0.4,0.6C246.8,131.5,246.8,132.6,246.8,133.8C246.8,133.8,246.8,133.8,246.8,133.8z"></path>
	<path class="st0" d="M373.2,154.6c0.4,0,0.8,0,1.3,0c0.5,0,0.8,0.1,0.8,0.7c0,0.6-0.3,0.8-0.8,0.8c-0.8,0-1.7,0-2.5,0   c-0.5,0-0.8-0.2-0.8-0.8c0-0.5,0.3-0.7,0.8-0.7C372.4,154.7,372.8,154.6,373.2,154.6C373.2,154.6,373.2,154.6,373.2,154.6z"></path>
	<path class="st0" d="M244.9,154.1c0.8,0,1.3,0.5,1.3,1.2c0,0.7-0.6,1.3-1.4,1.2c-0.8,0-1.3-0.5-1.2-1.3   C243.6,154.5,244,154.1,244.9,154.1z"></path>
	<path class="st0" d="M333.8,155.4c0,0.7-0.6,1.2-1.3,1.2c-0.8,0-1.3-0.5-1.3-1.3c0-0.8,0.5-1.2,1.3-1.2   C333.3,154.1,333.8,154.6,333.8,155.4z"></path>
	<path class="st0" d="M324.8,154.1c0.8,0,1.3,0.4,1.3,1.2c0,0.7-0.5,1.3-1.3,1.3c-0.8,0-1.4-0.5-1.4-1.3   C323.5,154.6,324,154.1,324.8,154.1z"></path>
	<path class="st0" d="M210.5,154.1c0.8,0,1.3,0.5,1.3,1.2c0,0.7-0.7,1.3-1.4,1.3c-0.7,0-1.3-0.6-1.3-1.3   C209.1,154.6,209.7,154.1,210.5,154.1z"></path>
</g>
</svg>
